<svg xmlns="http://www.w3.org/2000/svg" viewBox="0 0 200 200" fill="none" role="img" aria-label="Biotiza isotipo monocromo">
  <!-- Isotipo Biotiza en verde plano para usos donde no se permite gradiente -->
  <g fill="currentColor">
    <!-- Campos / surcos -->
    <path d="M 12 178 Q 38 120 100 116 L 100 134 Q 50 138 30 178 Z" />
    <path d="M 22 158 Q 50 108 100 102 L 100 118 Q 62 122 42 158 Z" />
    <path d="M 36 138 Q 65 96 100 90 L 100 104 Q 75 108 56 138 Z" />
    <path d="M 188 178 Q 162 120 100 116 L 100 134 Q 150 138 170 178 Z" />
    <path d="M 178 158 Q 150 108 100 102 L 100 118 Q 138 122 158 158 Z" />
    <path d="M 164 138 Q 135 96 100 90 L 100 104 Q 125 108 144 138 Z" />
    <!-- Tallo -->
    <rect x="93" y="62" width="14" height="58" rx="3" />
    <!-- Cotiledones -->
    <path d="M 100 40 Q 98 22 78 18 Q 54 18 50 38 Q 50 56 70 64 Q 88 68 100 60 Z" />
    <path d="M 100 40 Q 102 22 122 18 Q 146 18 150 38 Q 150 56 130 64 Q 112 68 100 60 Z" />
  </g>
  <!-- Slits y valle en blanco para mantener legibilidad -->
  <g fill="#ffffff">
    <ellipse cx="74" cy="42" rx="14" ry="4" transform="rotate(-18 74 42)" />
    <ellipse cx="126" cy="42" rx="14" ry="4" transform="rotate(18 126 42)" />
    <path d="M 92 56 Q 100 64 108 56 L 108 60 Q 100 70 92 60 Z" />
  </g>
</svg>
